<?xml version="1.0" encoding="UTF-8"?>
<svg version="1.1" xmlns="http://www.w3.org/2000/svg" width="1280" height="1280">
<path d="M0 0 C0.88510254 0.37108887 1.77020508 0.74217773 2.68212891 1.12451172 C17.39285483 7.37690126 31.24589536 14.87888954 45 23 C45.7935791 23.46519043 46.5871582 23.93038086 47.40478516 24.40966797 C67.10939045 36.00534732 85.75157577 49.25083096 104 63 C104.60102539 63.45181641 105.20205078 63.90363281 105.82128906 64.36914062 C118.00172373 73.552074 129.8093313 83.22133523 141.41577148 93.11694336 C144.75772672 95.96371706 148.14408763 98.74573632 151.5625 101.5 C156.62450862 105.61473215 161.40865951 109.97342851 166.17578125 114.421875 C168.18359607 116.254735 170.18880976 117.99071441 172.29296875 119.703125 C175 122 175 122 176 124 C179.02977429 122.64768813 181.08472613 121.14519457 183.390625 118.76953125 C184.01388672 118.13466797 184.63714844 117.49980469 185.27929688 116.84570312 C185.92962891 116.17474609 186.57996094 115.50378906 187.25 114.8125 C191.80173989 110.18205567 196.34905884 105.66200201 201.3125 101.46875 C203.12940433 99.88737031 204.8121128 98.21802804 206.5 96.5 C210.16270803 92.7881281 214.03979429 89.38988482 218 86 C219.05482382 85.09260636 220.10949986 84.18504092 221.1640625 83.27734375 C223.56485577 81.21254626 225.9703656 79.15341 228.37890625 77.09765625 C230.62610476 75.17937398 232.86347287 73.25099243 235.08984375 71.30859375 C243.87295395 63.69296683 253.12964378 56.74606188 262.48632812 49.85351562 C264.84598926 48.11356347 267.19675677 46.36218009 269.546875 44.609375 C321.28986909 6.31118505 386.93707301 -24.97943835 452.94995117 -16.17993164 C456.66712498 -15.586115 460.33431465 -14.85459759 464 -14 C465.07266113 -13.75056641 465.07266113 -13.75056641 466.16699219 -13.49609375 C498.30209172 -5.68296734 524.14466243 14.51001435 542 42 C542.91072266 43.39992188 542.91072266 43.39992188 543.83984375 44.828125 C555.48959976 63.7424681 561.80059348 85.30991238 565.75 107 C565.94875732 108.08982178 566.14751465 109.17964355 566.35229492 110.30249023 C569.67922776 129.70936079 570.37177148 148.90109538 570.3125 168.5625 C570.31067719 169.81833893 570.30885437 171.07417786 570.30697632 172.36807251 C570.25909775 192.01279094 569.6164786 211.39657853 567.25323486 230.89990234 C566.98835813 233.09654702 566.73353454 235.2942087 566.47998047 237.4921875 C562.52884313 271.43878341 557.42383297 305.84573381 549 339 C549.87172852 339.24008789 550.74345703 339.48017578 551.64160156 339.72753906 C574.68152987 346.10718058 597.42105781 353.14156583 620 361 C621.23218262 361.42780762 622.46436523 361.85561523 623.73388672 362.29638672 C678.84479441 381.61163742 740.36768738 410.53158882 778 457 C778.92312735 458.11071842 779.84630971 459.22139112 780.76953125 460.33203125 C787.50475585 468.51082537 793.62673246 476.86568689 799 486 C799.56630127 486.95398682 799.56630127 486.95398682 800.14404297 487.92724609 C804.97487943 496.18524201 808.81517574 504.55533742 811.875 513.625 C812.14908691 514.43461182 812.42317383 515.24422363 812.70556641 516.07836914 C816.7231863 528.64621237 818.54413702 541.00699788 818.4375 554.1875 C818.43379395 554.85842682 818.43008789 555.52935364 818.42626953 556.22061157 C818.11622908 595.89345807 799.034784 628.38230768 771.9375 656.3125 C768.12094168 660.01888963 764.02491166 663.35610859 759.87109375 666.67578125 C758.04115739 668.15715831 756.2379066 669.67257393 754.47265625 671.23046875 C705.5056555 714.15748703 637.96833508 738.38140677 577.375 759.75 C576.5220636 760.05267792 575.6691272 760.35535583 574.79034424 760.66720581 C572.34987659 761.53078274 569.90613308 762.38428971 567.4609375 763.234375 C566.75193298 763.48580765 566.04292847 763.7372403 565.31243896 763.99629211 C559.95889228 765.83615582 554.56764404 766.99763888 549 768 C549.13479263 768.5317131 549.26958527 769.06342621 549.40846252 769.61125183 C559.58702597 809.828359 568.2595539 849.76166415 573 891 C573.19916016 892.7310498 573.19916016 892.7310498 573.40234375 894.49707031 C580.24376892 957.4343384 574.37203069 1029.60512646 534.0625 1081.125 C532.71890354 1082.75875056 531.36460085 1084.38375222 530 1086 C529.30132813 1086.83402344 528.60265625 1087.66804688 527.8828125 1088.52734375 C510.53907569 1108.55596509 486.62171853 1121.25783633 461 1127 C459.91203125 1127.24621094 458.8240625 1127.49242187 457.703125 1127.74609375 C423.27497654 1133.95515037 387.66957463 1125.23622691 356 1112 C355.17435547 1111.65598145 354.34871094 1111.31196289 353.49804688 1110.95751953 C316.84850603 1095.49464284 283.64742971 1072.84457175 252 1049 C251.39897461 1048.54818359 250.79794922 1048.09636719 250.17871094 1047.63085938 C237.99827627 1038.447926 226.1906687 1028.77866477 214.58422852 1018.88305664 C211.24227328 1016.03628294 207.85591237 1013.25426368 204.4375 1010.5 C199.37549138 1006.38526785 194.59134049 1002.02657149 189.82421875 997.578125 C187.85327868 995.7789266 185.89345589 994.08393494 183.82421875 992.41015625 C180.44769208 989.52866669 178.44721883 986.67082825 176 983 C168.80152806 988.93454271 162.3703374 995.57530375 155.82617188 1002.21289062 C151.2720457 1006.80658923 146.68601536 1011.27041817 141.77172852 1015.4777832 C139.17672032 1017.70733757 136.69095514 1020.04311032 134.1875 1022.375 C129.54095872 1026.66751208 124.7590076 1030.73338031 119.828125 1034.69921875 C117.32174471 1036.73824913 114.86387426 1038.82388947 112.41674805 1040.93334961 C57.34228915 1088.28011849 -14.75132698 1130.03659486 -89.52734375 1125.75390625 C-124.43103068 1123.03880534 -155.78345772 1108.41986605 -179 1082 C-211.61801095 1042.53186425 -218.71641646 989.0259581 -218.375 939.5625 C-218.37034729 938.34743774 -218.36569458 937.13237549 -218.36090088 935.88049316 C-218.26971621 915.4410984 -217.43578261 895.29117043 -215 875 C-214.90525391 874.19266418 -214.81050781 873.38532837 -214.71289062 872.55352783 C-212.03713796 849.79815326 -208.49427179 827.22486256 -204.375 804.6875 C-204.18717957 803.65428619 -203.99935913 802.62107239 -203.80584717 801.55654907 C-201.6711081 789.88876596 -199.3093673 778.39681569 -196 767 C-197.52258423 766.80905762 -197.52258423 766.80905762 -199.07592773 766.61425781 C-202.77106217 766.03583697 -206.19507975 765.20878945 -209.78515625 764.171875 C-210.42633392 763.98691971 -211.0675116 763.80196442 -211.7281189 763.61140442 C-213.84170105 762.99793793 -215.95236845 762.37522745 -218.0625 761.75 C-218.79775909 761.5330246 -219.53301819 761.31604919 -220.29055786 761.09249878 C-280.07947725 743.38257344 -340.98000751 720.52995027 -390 681 C-390.50515137 680.59491211 -391.01030273 680.18982422 -391.53076172 679.77246094 C-426.29978376 651.65153555 -455.46260199 614.35755466 -462 569 C-462.91170178 551.91407993 -463.15851328 534.45190211 -458 518 C-457.79101074 517.32163086 -457.58202148 516.64326172 -457.36669922 515.94433594 C-447.28792995 484.31134474 -424.87407548 457.19281675 -399 437 C-398.39978027 436.52336914 -397.79956055 436.04673828 -397.18115234 435.55566406 C-379.55443594 421.56900799 -360.69573891 409.83837083 -341 399 C-340.22366211 398.57122559 -339.44732422 398.14245117 -338.64746094 397.70068359 C-305.53479068 379.52771275 -270.09170748 365.47578172 -234.5625 352.8125 C-233.25829102 352.34727432 -233.25829102 352.34727432 -231.92773438 351.87265015 C-223.35383582 348.82502449 -214.75346655 345.85765629 -206.08984375 343.07421875 C-204.83937256 342.67162842 -203.58890137 342.26903809 -202.30053711 341.85424805 C-199.34692582 341.08979166 -197.02486914 340.80935246 -194 341 C-194.44484741 339.20042847 -194.44484741 339.20042847 -194.89868164 337.36450195 C-204.39615639 298.82600713 -212.46445643 260.45583709 -217 221 C-217.13277344 219.8459668 -217.26554688 218.69193359 -217.40234375 217.50292969 C-224.24376892 154.5656616 -218.37203069 82.39487354 -178.0625 30.875 C-176.71890354 29.24124944 -175.36460085 27.61624778 -174 26 C-172.95199219 24.74896484 -172.95199219 24.74896484 -171.8828125 23.47265625 C-154.53907569 3.44403491 -130.62171853 -9.25783633 -105 -15 C-103.91203125 -15.24621094 -102.8240625 -15.49242188 -101.703125 -15.74609375 C-67.31445251 -21.94803095 -31.62366587 -13.27970976 0 0 Z " fill="#002C4B" transform="translate(462,84)"/>
<path d="M0 0 C1.27412496 -0.00785502 1.27412496 -0.00785502 2.57398981 -0.01586872 C5.41334241 -0.030841 8.25251435 -0.03157328 11.09190369 -0.03224182 C13.13078616 -0.03986536 15.16966577 -0.04829319 17.20854187 -0.0574646 C22.74401243 -0.07940193 28.27942775 -0.08820792 33.81493688 -0.09329104 C37.27683302 -0.09693664 40.73871475 -0.10317788 44.20060539 -0.11029243 C56.28856414 -0.13478784 68.37647999 -0.14783826 80.46446228 -0.15138245 C91.71385713 -0.15501397 102.96297853 -0.18488178 114.21228987 -0.22678703 C123.88303178 -0.26154269 133.55368333 -0.27693183 143.22448725 -0.27762848 C148.9945913 -0.27841973 154.76441698 -0.28708804 160.53445625 -0.31562614 C165.96744904 -0.3418958 171.39993446 -0.34396222 176.83296204 -0.3279705 C178.81902617 -0.32616288 180.80512006 -0.33278418 182.79112053 -0.34878922 C195.58191969 -0.44552382 209.04447485 -0.24669156 218.85728455 9.35227966 C222.62907935 13.95705149 225.47927376 19.12862067 228.4315033 24.27415466 C229.52462421 26.15603064 230.61843088 28.03750837 231.7127533 29.91868591 C239.02055078 42.51305869 246.23208357 55.16300989 253.44908142 67.80955505 C257.9210976 75.64391051 262.4180855 83.4635664 266.9315033 91.27415466 C272.46380956 100.84795624 277.96180892 110.44084784 283.4417572 120.04466248 C288.24868313 128.46782924 293.07952138 136.87683787 297.9315033 145.27415466 C302.9640914 153.99105294 307.99586351 162.70843355 313.00352478 171.43968201 C313.69313031 172.64109539 314.38368716 173.84196333 315.07530212 175.04222107 C317.22300591 178.7704105 319.33864958 182.51492248 321.4315033 186.27415466 C321.93995789 187.16860291 322.44841248 188.06305115 322.97227478 188.98460388 C325.97056139 194.52787935 327.34423498 199.08789946 327.2440033 205.39915466 C327.23191833 206.2226239 327.21983337 207.04609314 327.2073822 207.89451599 C326.76050102 217.05381382 323.08725022 223.57781894 318.4315033 231.27415466 C317.39918543 233.0545827 316.37078031 234.83728314 315.3455658 236.62181091 C313.00904721 240.67257294 310.6485465 244.70807566 308.27134705 248.73509216 C304.28294655 255.50421736 300.38228617 262.32227254 296.4940033 269.14915466 C295.14159681 271.52181191 293.78868036 273.8941778 292.43540955 276.26634216 C292.10135101 276.85193909 291.76729248 277.43753601 291.42311096 278.0408783 C287.94668882 284.13065012 284.44033746 290.20302116 280.9315033 296.27415466 C275.76311368 305.21965342 270.61733983 314.17778918 265.4940033 323.14915466 C265.16289551 323.72887024 264.83178772 324.30858582 264.49064636 324.90586853 C261.11633207 330.81425204 257.74470339 336.72416222 254.3757782 342.63562012 C247.58000244 354.55897505 240.76680204 366.47191897 233.8690033 378.33665466 C233.32163513 379.28121521 232.77426697 380.22577576 232.21031189 381.19895935 C217.97534075 405.60799158 217.97534075 405.60799158 204.4315033 410.27415466 C199.97876675 411.4095092 195.59710232 411.41963699 191.03227234 411.41459656 C190.18905497 411.41756768 189.3458376 411.4205388 188.47706819 411.42359996 C185.65295054 411.43226815 182.82887537 411.43379362 180.00474548 411.43528748 C177.97922678 411.43991697 175.95370895 411.44494181 173.92819214 411.45033264 C168.42599361 411.46344575 162.92380728 411.46989945 157.42159557 411.4743433 C153.98302484 411.4772757 150.54445743 411.48138082 147.10588837 411.48584747 C136.34440748 411.49951936 125.5829342 411.5091876 114.82144523 411.51304936 C102.40436608 411.51752989 89.98739703 411.53507891 77.57035136 411.56404996 C67.96848855 411.58567412 58.36665669 411.59575404 48.76476979 411.59709048 C43.03173797 411.59813795 37.29880968 411.60403357 31.56580353 411.6219101 C26.17151547 411.63840346 20.77740863 411.64054006 15.38310432 411.63177109 C13.40665514 411.6310014 11.43019616 411.63533435 9.45377159 411.64522934 C6.74852298 411.65797564 4.04391366 411.65205753 1.33866882 411.64164734 C0.17496863 411.65373195 0.17496863 411.65373195 -1.01224065 411.66606069 C-10.43209117 411.58170759 -18.31771809 408.1832077 -25.5684967 402.27415466 C-31.47426516 395.86253881 -35.52523347 388.33868203 -39.6309967 380.71165466 C-40.95200203 378.28990153 -42.27953758 375.87175338 -43.6075592 373.45384216 C-43.940233 372.84675919 -44.2729068 372.23967621 -44.61566162 371.61419678 C-47.81207132 365.79597175 -51.1412255 360.05903172 -54.5059967 354.33665466 C-59.53956807 345.76313004 -64.51738486 337.15979855 -69.4434967 328.52415466 C-69.77628632 327.9409848 -70.10907593 327.35781494 -70.45195007 326.75697327 C-73.16631571 321.99996693 -75.87786314 317.24135608 -78.58924866 312.48265076 C-80.95601105 308.32906487 -83.32401878 304.17619206 -85.6934967 300.02415466 C-86.02587341 299.44156891 -86.35825012 298.85898315 -86.70069885 298.25874329 C-91.31600079 290.17242102 -95.98445634 282.11875062 -100.6934967 274.08665466 C-106.10812932 264.85069777 -111.36998541 255.5367806 -116.5738678 246.1806488 C-120.45584597 239.21488204 -124.42696223 232.31146718 -128.54994202 225.4853363 C-132.3846966 219.08328824 -133.91409001 214.50324108 -133.8809967 207.02415466 C-133.89710999 206.3113031 -133.91322327 205.59845154 -133.92982483 204.86399841 C-133.93899977 194.67981024 -129.53665022 186.99386794 -124.3809967 178.46165466 C-123.11279114 176.32569448 -121.84591692 174.1889434 -120.58021545 172.05149841 C-119.59094055 170.3864325 -119.59094055 170.3864325 -118.5816803 168.68772888 C-115.22725985 162.99994005 -111.96087145 157.26222513 -108.6934967 151.52415466 C-108.02091142 150.34481502 -107.34822206 149.16553473 -106.6754303 147.98631287 C-105.31812925 145.60697604 -103.96137654 143.22732795 -102.6051178 140.84739685 C-99.24197619 134.94613778 -95.87471603 129.04723117 -92.5059967 123.14915466 C-92.17456665 122.56879456 -91.8431366 121.98843445 -91.50166321 121.39048767 C-86.0992058 111.93215994 -80.6625413 102.49387083 -75.21278381 93.06272888 C-70.64122584 85.146523 -66.0993271 77.21370096 -61.5684967 69.27415466 C-41.53228563 34.17467221 -41.53228563 34.17467221 -33.3809967 20.46165466 C-32.72744202 19.36208435 -32.07388733 18.26251404 -31.40052795 17.12962341 C-28.20146225 12.14344637 -25.24560228 8.73537593 -20.1934967 5.58665466 C-18.82064514 4.71460388 -18.82064514 4.71460388 -17.4200592 3.82493591 C-11.64303159 0.68318254 -6.50271854 -0.0199585 0 0 Z " fill="#FDD74B" transform="translate(543.5684967041016,430.72584533691406)"/>
<path d="M0 0 C4.05172412 4.26909129 6.14108409 7.84403556 6.4296875 13.76953125 C6.27705636 19.27849788 4.47964925 22.94460791 1.625 27.5625 C1.17165283 28.3356958 0.71830566 29.1088916 0.2512207 29.90551758 C-1.14692809 32.28220122 -2.57216978 34.64106289 -4 37 C-4.81373437 38.37610744 -5.6250413 39.75365398 -6.43359375 41.1328125 C-7.63287047 43.17820166 -8.83335257 45.22273223 -10.04101562 47.26318359 C-19.54238803 63.32694457 -28.55665581 79.67724549 -37.42675781 96.09619141 C-39.02269863 99.04189595 -40.63202434 101.98001822 -42.2421875 104.91796875 C-59.69948367 136.95027326 -76.09201675 169.70358912 -91 203 C-91.56396068 204.25316758 -92.12809457 205.50625722 -92.69238281 206.75927734 C-108.66627977 242.27945714 -123.53040891 278.23528417 -137.42578125 314.6171875 C-137.73975357 315.43900009 -138.05372589 316.26081268 -138.37721252 317.10752869 C-139.76474992 320.74425542 -141.14551077 324.38313072 -142.50610352 328.0300293 C-142.94494873 329.19703369 -143.38379395 330.36403809 -143.8359375 331.56640625 C-144.38773682 333.0505603 -144.38773682 333.0505603 -144.95068359 334.56469727 C-147.31995664 340.06341728 -151.52147493 342.53681121 -156.546875 345.30078125 C-166.17919918 348.0463004 -174.87734956 343.98594968 -183.8125 340.6875 C-185.33340889 340.13659783 -186.85457166 339.5863961 -188.37597656 339.03686523 C-192.92739741 337.384647 -197.4659841 335.69933662 -202 334 C-202.64974792 333.75664917 -203.29949585 333.51329834 -203.96893311 333.26257324 C-251.92638065 315.25010659 -300.9913607 294.58787886 -341 262 C-341.57202148 261.53625977 -342.14404297 261.07251953 -342.73339844 260.59472656 C-363.74764505 243.43251861 -382.18897028 221.89106317 -385.23193359 193.86376953 C-387.19044826 166.77201299 -372.89687367 144.2360932 -355.96557617 124.48046875 C-348.94355917 116.42832396 -341.37308431 109.62546566 -333 103 C-332.03449219 102.21753906 -331.06898438 101.43507813 -330.07421875 100.62890625 C-282.24206711 62.64276295 -219.85220535 41.22862832 -161.29150391 26.16015625 C-156.2288277 24.85517809 -151.1973125 23.49797123 -146.1875 22 C-137.34817332 19.42051395 -128.34479631 17.49632814 -119.3671875 15.46484375 C-115.25315383 14.53085703 -111.15843564 13.5452462 -107.0703125 12.50390625 C-81.95738674 6.18225689 -56.1636988 1.73396796 -30.625 -2.5 C-29.69647217 -2.65976318 -28.76794434 -2.81952637 -27.8112793 -2.98413086 C-7.54023541 -6.21650519 -7.54023541 -6.21650519 0 0 Z " fill="#FE4053" transform="translate(432,449)"/>
<path d="M0 0 C1.59445611 0.59193165 3.18927057 1.18289885 4.78442383 1.77294922 C9.67932106 3.59207524 14.55974081 5.44798834 19.4375 7.3125 C20.18986938 7.5992157 20.94223877 7.8859314 21.71740723 8.18133545 C40.52570856 15.35392253 59.14622497 22.89545484 77.4375 31.3125 C78.52724121 31.81217285 79.61698242 32.3118457 80.73974609 32.82666016 C124.13583452 52.85610387 178.53890227 81.4708224 196.8125 129.0625 C197.38345788 130.80316363 197.92714374 132.55311395 198.4375 134.3125 C198.77394531 135.47072266 198.77394531 135.47072266 199.1171875 136.65234375 C203.92971468 156.46281523 197.92966368 176.351644 188.0859375 193.640625 C170.34883506 222.38986213 143.54666304 243.85978954 114.4375 260.3125 C113.28749512 260.97451416 113.28749512 260.97451416 112.11425781 261.64990234 C86.06562612 276.60146839 58.56418486 287.53078267 30.36639404 297.6204834 C27.53403872 298.63662885 24.7070841 299.66760719 21.87890625 300.6953125 C10.08439166 304.935126 -1.80520359 308.42401792 -13.92431641 311.60351562 C-17.26352113 312.50089213 -20.57665528 313.47645127 -23.89233398 314.45654297 C-61.9887831 325.67306068 -101.10419234 332.97830315 -140.16400146 339.88684082 C-142.34385131 340.27369663 -144.5229402 340.66445566 -146.70166016 341.05761719 C-150.00778239 341.65258579 -153.3156731 342.2356697 -156.625 342.8125 C-157.50768555 342.97250488 -158.39037109 343.13250977 -159.29980469 343.29736328 C-175.229709 345.99824882 -175.229709 345.99824882 -182 342.1875 C-185.95128192 339.32929812 -188.49301235 335.98621913 -190.3125 331.4375 C-191.19942662 323.89862373 -190.31727767 319.72388431 -186.4375 313.3125 C-185.77186035 312.16406616 -185.77186035 312.16406616 -185.09277344 310.99243164 C-183.59869433 308.42272792 -182.08072246 305.86800276 -180.5625 303.3125 C-179.46437877 301.43723156 -178.36807674 299.56089684 -177.2734375 297.68359375 C-175.52310488 294.68216686 -173.77217916 291.6811229 -172.0168457 288.68261719 C-144.11840696 240.9723523 -118.4694374 191.60542406 -95.5625 141.3125 C-94.78422852 139.6111792 -94.78422852 139.6111792 -93.99023438 137.87548828 C-78.40351393 103.7467819 -63.96262515 69.06542382 -50.62890625 33.99609375 C-50.29140854 33.11051285 -49.95391083 32.22493195 -49.60618591 31.31251526 C-47.9395122 26.93870058 -46.28043667 22.56233522 -44.63647461 18.17993164 C-44.028768 16.57817963 -43.42078937 14.97653079 -42.8125 13.375 C-42.54317154 12.64820541 -42.27384308 11.92141083 -41.99635315 11.17259216 C-39.30604811 4.13525927 -36.26382467 -0.83780285 -29.5625 -4.6875 C-19.22361284 -8.13379572 -9.64331361 -3.65537871 0 0 Z " fill="#FE4053" transform="translate(1032.5625,490.6875)"/>
<path d="M0 0 C6.64421424 4.90406289 10.32070994 11.60565644 14.0625 18.8125 C20.25526414 30.44756928 26.98873813 41.71242867 33.83056641 52.97460938 C35.50661388 55.74202599 37.16902907 58.51694527 38.82421875 61.296875 C45.08349718 71.80922695 51.50914645 82.20005458 58.08740234 92.515625 C59.60737761 94.90974291 61.11203593 97.31285182 62.61328125 99.71875 C70.24405257 111.89826927 78.20590363 123.84106978 86.25 135.75 C86.77298676 136.52510925 87.29597351 137.30021851 87.83480835 138.09881592 C95.29373943 149.1442637 102.90332087 160.0743641 110.625 170.9375 C111.50177516 172.17421181 112.37840875 173.411024 113.25488281 174.64794922 C125.34332049 191.68691498 137.91622215 208.35824195 150.625 224.9375 C151.57425474 226.17835789 152.52347758 227.41924017 153.47265625 228.66015625 C162.67597651 240.67584905 172.06783652 252.52539569 181.62890625 264.2578125 C184.63232006 267.94352256 187.62035509 271.64078878 190.578125 275.36328125 C192.20515511 277.40948897 193.8424031 279.44629583 195.484375 281.48046875 C196.48986064 282.73675727 197.49507013 283.99326686 198.5 285.25 C198.97711426 285.8373291 199.45422852 286.4246582 199.94580078 287.02978516 C204.18044076 292.35389773 206.2308682 296.69160546 205.97998047 303.48413086 C204.95923059 310.53881829 199.09387984 315.85077951 194 320.375 C193.3810083 320.93646729 192.7620166 321.49793457 192.12426758 322.07641602 C187.74477966 326.01891494 183.25916144 329.81537729 178.66015625 333.5 C175.5679916 335.98328281 172.51439116 338.50866722 169.46264648 341.04125977 C162.22083385 347.04294295 154.93076494 352.94913615 147.40820312 358.59765625 C146.15443659 359.5396977 144.90337001 360.48533803 143.65429688 361.43359375 C124.25480499 376.14053014 103.9808611 390.20820398 82.625 401.9375 C81.77583008 402.40849121 80.92666016 402.87948242 80.05175781 403.36474609 C66.00547765 411.1028612 51.72715949 417.54207321 36.625 422.9375 C35.8621167 423.21231201 35.0992334 423.48712402 34.31323242 423.77026367 C11.33336459 431.76883677 -13.96899301 433.3511695 -36.375 422.9375 C-61.04869139 409.81390838 -74.12982164 385.46270723 -82.4609375 359.74267578 C-84.1740765 354.08408802 -85.48106958 348.36100661 -86.625 342.5625 C-86.85195557 341.41587891 -86.85195557 341.41587891 -87.08349609 340.24609375 C-90.23384572 322.78924113 -90.77846852 305.19476964 -90.75 287.5 C-90.75045319 286.39642151 -90.75090637 285.29284302 -90.75137329 284.15582275 C-90.67078179 216.85040257 -72.59743149 151.09500876 -53.05731201 87.17059326 C-52.62090253 85.7422979 -52.18561292 84.31365957 -51.75177002 82.88458252 C-48.42685702 71.94510545 -44.74916443 61.13922602 -40.97363281 50.34765625 C-40.00415847 47.57439563 -39.04090497 44.79902822 -38.078125 42.0234375 C-36.20817033 36.650162 -34.3050074 31.28948853 -32.375 25.9375 C-32.06639038 25.07942749 -31.75778076 24.22135498 -31.43981934 23.33728027 C-30.54531466 20.87258293 -29.63190773 18.415852 -28.7109375 15.9609375 C-28.44842194 15.23605133 -28.18590637 14.51116516 -27.91543579 13.76431274 C-23.02464495 0.97198041 -13.4040126 -4.21978174 0 0 Z " fill="#FE4053" transform="translate(387.375,729.0625)"/>
<path d="M0 0 C0.81855469 0.64453125 1.63710938 1.2890625 2.48046875 1.953125 C29.03138307 24.18179745 38.3765922 62.8530728 41.72665405 95.71154785 C42.4370201 104.25751236 42.40294791 112.8221835 42.33618164 121.39160156 C42.31245524 124.63111197 42.31567517 127.86979852 42.32226562 131.109375 C42.2978978 149.91030873 40.7367489 168.40568862 38 187 C37.90692566 187.64443054 37.81385132 188.28886108 37.71795654 188.95281982 C32.94102418 221.97691383 26.1977809 254.61056374 16.70507812 286.61572266 C16.08499498 288.71258275 15.48152796 290.81273863 14.890625 292.91796875 C13.94543727 296.28423161 12.97620758 299.64261156 12 303 C11.81711426 303.6388916 11.63422852 304.2777832 11.44580078 304.93603516 C4.24041064 330.03432066 -4.46085548 354.71504138 -13.00662231 379.381073 C-13.6636299 381.27854545 -14.31899181 383.17658859 -14.97262573 385.07522583 C-15.89277894 387.74485423 -16.82032974 390.41179812 -17.75 393.078125 C-18.01937881 393.86313889 -18.28875763 394.64815277 -18.56629944 395.45695496 C-21.48821559 403.77925802 -23.97431949 410.36880389 -31.7890625 415.078125 C-36.2814295 416.95126742 -41.23712625 416.51714849 -46 416 C-52.46180146 412.88448858 -55.8723777 407.49373276 -59.29296875 401.37109375 C-60.22568604 399.71557495 -60.22568604 399.71557495 -61.17724609 398.02661133 C-61.504245 397.44247467 -61.8312439 396.85833801 -62.16815186 396.25650024 C-68.88699907 384.2668922 -75.88577822 372.46893158 -83.05664062 360.74536133 C-86.83100867 354.57411566 -90.55858017 348.38291116 -94.1875 342.125 C-104.44505035 324.57829488 -115.79517741 307.71905312 -127.0625 290.8125 C-127.65278992 289.9265213 -128.24307983 289.0405426 -128.85125732 288.12771606 C-148.48171775 258.6840682 -168.66514038 229.74608397 -190.17211914 201.63696289 C-193.72098685 196.99832272 -197.24459016 192.3437658 -200.72631836 187.65454102 C-206.23761781 180.23523615 -211.97282951 173.03358943 -217.83203125 165.88671875 C-220.85576796 162.19288148 -223.81238837 158.45000416 -226.75 154.6875 C-229.95432388 150.58555352 -233.19113345 146.5187475 -236.5 142.5 C-240.00468631 138.22846551 -243.49029885 133.94302553 -246.9375 129.625 C-247.41058594 129.04169922 -247.88367188 128.45839844 -248.37109375 127.85742188 C-252.57816287 122.555781 -254.60455343 118.21029855 -254.35498047 111.45336914 C-253.33423059 104.39868171 -247.46887984 99.08672049 -242.375 94.5625 C-241.7560083 94.00103271 -241.1370166 93.43956543 -240.49926758 92.86108398 C-236.11977966 88.91858506 -231.63416144 85.12212271 -227.03515625 81.4375 C-223.9429916 78.95421719 -220.88939116 76.42883278 -217.83764648 73.89624023 C-210.59583385 67.89455705 -203.30576494 61.98836385 -195.78320312 56.33984375 C-194.52943659 55.3978023 -193.27837001 54.45216197 -192.02929688 53.50390625 C-172.63460759 38.80061076 -152.36140205 24.70917827 -131 13 C-130.1455127 12.52900879 -129.29102539 12.05801758 -128.41064453 11.57275391 C-90.80828713 -9.00062647 -38.34181164 -31.18896947 0 0 Z " fill="#FE4053" transform="translate(941,136)"/>
<path d="M0 0 C6.06644684 5.68745727 7.78659524 12.65008881 9.13745117 20.59375 C9.3364502 21.69678467 9.53544922 22.79981934 9.74047852 23.9362793 C10.42406188 27.81736191 11.06946513 31.70377847 11.69995117 35.59375 C11.82239197 36.34658264 11.94483276 37.09941528 12.07098389 37.87506104 C31.15319311 155.71686985 31.15319311 155.71686985 16.69995117 209.59375 C16.30646484 211.06352295 16.30646484 211.06352295 15.9050293 212.56298828 C11.42156355 228.58035783 5.05416186 244.21342203 -6.30004883 256.59375 C-6.92524414 257.29886719 -7.55043945 258.00398438 -8.19458008 258.73046875 C-16.57545144 267.69168558 -26.73882871 272.83635346 -38.30004883 276.59375 C-39.25911133 276.91472656 -40.21817383 277.23570312 -41.20629883 277.56640625 C-80.70732914 288.74103982 -124.51530167 268.81660622 -158.31225586 250.28759766 C-166.23937386 245.79353452 -173.7990102 240.75925964 -181.30004883 235.59375 C-182.05253906 235.07925293 -182.8050293 234.56475586 -183.58032227 234.03466797 C-193.45631982 227.26077413 -202.99637893 220.13183152 -212.30004883 212.59375 C-212.98099609 212.04428711 -213.66194336 211.49482422 -214.36352539 210.92871094 C-222.72041542 204.17151453 -230.89248643 197.29049737 -238.75317383 189.9609375 C-240.84007282 188.02127372 -242.95188167 186.13720769 -245.11254883 184.28125 C-256.98064312 173.91454113 -268.15186927 162.84595316 -279.30004883 151.71875 C-279.93792328 151.08346375 -280.57579773 150.44817749 -281.23300171 149.79364014 C-293.87030099 137.19673767 -293.87030099 137.19673767 -298.91918945 131.18896484 C-300.46671861 129.4012075 -302.11225285 127.74897534 -303.80004883 126.09375 C-306.79239258 123.14774785 -309.55329055 120.06391993 -312.29223633 116.8828125 C-314.24360068 114.65810528 -316.24173339 112.48221735 -318.25439453 110.31298828 C-323.0624236 105.12900919 -327.61854984 99.81924875 -332.05395508 94.30859375 C-334.38835472 91.48701505 -336.81995481 88.78784288 -339.30004883 86.09375 C-343.34927912 81.68888624 -347.17482029 77.1575362 -350.92895508 72.5 C-352.66476612 70.37241613 -354.4167523 68.27240633 -356.20239258 66.1875 C-356.69618408 65.6104834 -357.18997559 65.0334668 -357.69873047 64.43896484 C-358.65719378 63.32215775 -359.61846337 62.20775068 -360.58300781 61.09619141 C-366.19575319 54.54576322 -368.69420997 49.48749701 -368.58129883 40.90625 C-367.97772931 35.94356729 -365.44407606 32.65197519 -361.80004883 29.28125 C-356.70128783 25.83958632 -352.86468123 25.27395477 -346.72143555 25.19897461 C-345.85553299 25.18078171 -344.98963043 25.16258881 -344.0974884 25.1438446 C-341.2250002 25.08565847 -338.35246087 25.04096167 -335.47973633 24.99609375 C-333.46263908 24.95741318 -331.44555931 24.91781139 -329.42849731 24.87733459 C-324.09566942 24.77247168 -318.76270548 24.67866308 -313.42962646 24.58758545 C-304.9903606 24.4415051 -296.5513861 24.27878103 -288.11240387 24.11725998 C-286.06581455 24.07815277 -284.01921925 24.03935724 -281.9726181 24.00087357 C-266.738458 23.71314957 -251.52156537 23.29489279 -236.30004883 22.59375 C-234.82204753 22.53120111 -233.34402156 22.46923148 -231.8659668 22.40795898 C-205.78030531 21.30010983 -179.85704633 18.63071896 -153.90289307 15.87042236 C-151.63424064 15.62927331 -149.36540488 15.38999985 -147.09643555 15.15185547 C-139.49141368 14.34962032 -131.89512169 13.48478073 -124.30004883 12.59375 C-122.7668717 12.41676682 -121.23366662 12.24002572 -119.70043945 12.06347656 C-99.63858145 9.74751406 -79.68003655 7.21535631 -59.78833008 3.70703125 C-55.25757558 2.90851535 -50.72416408 2.2142062 -46.16723633 1.58203125 C-39.19225882 0.60939782 -32.30338579 -0.67918365 -25.40356445 -2.08203125 C-7.53993836 -5.50793214 -7.53993836 -5.50793214 0 0 Z " fill="#FE4053" transform="translate(961.300048828125,872.40625)"/>
<path d="M0 0 C3.16684831 2.40682356 6.28610048 4.87284029 9.40625 7.33984375 C10.53154154 8.20964228 11.6578727 9.07809722 12.78515625 9.9453125 C25.15635912 19.49927638 36.85116425 29.82009368 48.40625 40.33984375 C49.32535156 41.16613281 50.24445313 41.99242187 51.19140625 42.84375 C57.61201239 48.65528678 63.79938344 54.6477756 69.86230469 60.83276367 C72.83591092 63.97369193 72.83591092 63.97369193 76.40625 66.33984375 C76.40625 66.99984375 76.40625 67.65984375 76.40625 68.33984375 C76.98761719 68.58347656 77.56898438 68.82710938 78.16796875 69.078125 C80.80904145 70.56689722 82.25608474 72.21627637 84.21875 74.52734375 C88.31076268 79.20296023 92.61203154 83.59818987 97.03125 87.96484375 C101.35810591 92.25315659 105.60562404 96.53055343 109.5390625 101.1875 C112.24936519 104.31171921 115.08307391 107.31774682 117.90625 110.33984375 C122.4973511 115.26582668 127.02797612 120.22262069 131.40625 125.33984375 C132.29416299 126.37379053 133.18219505 127.40763508 134.0703125 128.44140625 C136.12211746 130.83135029 138.17124535 133.22355858 140.21875 135.6171875 C142.31857 138.0714808 144.42277637 140.52188755 146.53125 142.96875 C173.00694057 173.71362993 173.00694057 173.71362993 172.78515625 183.73828125 C171.93723536 189.56008863 168.81079344 193.24429987 164.28125 196.77734375 C160.42628713 198.87243227 157.63419823 199.47013568 153.31274414 199.52929688 C152.26646347 199.54606979 151.2201828 199.56284271 150.14219666 199.5801239 C149.00343582 199.59364395 147.86467499 199.607164 146.69140625 199.62109375 C145.50716568 199.63900467 144.32292511 199.65691559 143.10279846 199.67536926 C140.55490857 199.71366756 138.00698849 199.74999699 135.45904541 199.78457642 C131.43465823 199.84031594 127.410455 199.90325641 123.38623047 199.96948242 C122.38615652 199.98589106 122.38615652 199.98589106 121.36587906 200.00263119 C120.02499605 200.0246475 118.68411343 200.04668714 117.3432312 200.06875038 C114.04768242 200.12272593 110.75211336 200.17538688 107.45654297 200.22802734 C105.62769562 200.25724274 105.62769562 200.25724274 103.76190186 200.28704834 C100.91957553 200.33176746 98.07723197 200.37459548 95.23486328 200.41650391 C48.55761974 201.13075825 1.94313558 204.46163889 -44.46875 209.33984375 C-45.27266552 209.42401173 -46.07658104 209.5081797 -46.90485764 209.59489822 C-67.16439007 211.71944288 -87.36791465 214.12740013 -107.54702759 216.91859436 C-111.19510516 217.422989 -114.84454422 217.91697604 -118.49423218 218.40956116 C-130.60947198 220.07220094 -142.66259355 222.14585624 -154.71923828 224.18310547 C-187.70628505 229.75633599 -187.70628505 229.75633599 -193.90625 226.71484375 C-204.2222525 217.59837643 -204.84222036 205.78473828 -207.03125 192.65234375 C-207.24515381 191.38197266 -207.45905762 190.11160156 -207.67944336 188.80273438 C-208.11504891 186.20692053 -208.54842026 183.61073072 -208.97949219 181.01416016 C-209.52709021 177.73858373 -210.09217313 174.46671357 -210.6640625 171.1953125 C-212.81995814 158.62309193 -214.40096438 146.01665658 -215.78125 133.33984375 C-215.9083989 132.18379639 -215.9083989 132.18379639 -216.03811646 131.00439453 C-217.98462944 113.15377176 -218.83202475 95.421174 -218.84375 77.46484375 C-218.84442474 76.52574158 -218.84509949 75.5866394 -218.84579468 74.61907959 C-218.80420302 37.96944146 -215.03477213 -3.0143542 -189.59375 -31.66015625 C-188.99046875 -32.35753906 -188.3871875 -33.05492187 -187.765625 -33.7734375 C-137.88291176 -87.74317977 -44.92424103 -33.60404537 0 0 Z " fill="#FE4053" transform="translate(521.59375,175.66015625)"/>
<path d="M0 0 C1.27412496 -0.00785502 1.27412496 -0.00785502 2.57398981 -0.01586872 C5.41334241 -0.030841 8.25251435 -0.03157328 11.09190369 -0.03224182 C13.13078616 -0.03986536 15.16966577 -0.04829319 17.20854187 -0.0574646 C22.74401243 -0.07940193 28.27942775 -0.08820792 33.81493688 -0.09329104 C37.27683302 -0.09693664 40.73871475 -0.10317788 44.20060539 -0.11029243 C56.28856414 -0.13478784 68.37647999 -0.14783826 80.46446228 -0.15138245 C91.71385713 -0.15501397 102.96297853 -0.18488178 114.21228987 -0.22678703 C123.88303178 -0.26154269 133.55368333 -0.27693183 143.22448725 -0.27762848 C148.9945913 -0.27841973 154.76441698 -0.28708804 160.53445625 -0.31562614 C165.96744904 -0.3418958 171.39993446 -0.34396222 176.83296204 -0.3279705 C178.81902617 -0.32616288 180.80512006 -0.33278418 182.79112053 -0.34878922 C195.58191969 -0.44552382 209.04447485 -0.24669156 218.85728455 9.35227966 C222.62907935 13.95705149 225.47927376 19.12862067 228.4315033 24.27415466 C229.52462421 26.15603064 230.61843088 28.03750837 231.7127533 29.91868591 C239.02055078 42.51305869 246.23208357 55.16300989 253.44908142 67.80955505 C257.9210976 75.64391051 262.4180855 83.4635664 266.9315033 91.27415466 C272.46380956 100.84795624 277.96180892 110.44084784 283.4417572 120.04466248 C288.24868313 128.46782924 293.07952138 136.87683787 297.9315033 145.27415466 C302.9640914 153.99105294 307.99586351 162.70843355 313.00352478 171.43968201 C313.69313031 172.64109539 314.38368716 173.84196333 315.07530212 175.04222107 C317.22300591 178.7704105 319.33864958 182.51492248 321.4315033 186.27415466 C321.93995789 187.16860291 322.44841248 188.06305115 322.97227478 188.98460388 C325.97056139 194.52787935 327.34423498 199.08789946 327.2440033 205.39915466 C327.23191833 206.2226239 327.21983337 207.04609314 327.2073822 207.89451599 C326.76050102 217.05381382 323.08725022 223.57781894 318.4315033 231.27415466 C317.39918543 233.0545827 316.37078031 234.83728314 315.3455658 236.62181091 C313.00904721 240.67257294 310.6485465 244.70807566 308.27134705 248.73509216 C304.28294655 255.50421736 300.38228617 262.32227254 296.4940033 269.14915466 C295.14159681 271.52181191 293.78868036 273.8941778 292.43540955 276.26634216 C292.10135101 276.85193909 291.76729248 277.43753601 291.42311096 278.0408783 C287.94668882 284.13065012 284.44033746 290.20302116 280.9315033 296.27415466 C275.76311368 305.21965342 270.61733983 314.17778918 265.4940033 323.14915466 C265.16289551 323.72887024 264.83178772 324.30858582 264.49064636 324.90586853 C261.11633207 330.81425204 257.74470339 336.72416222 254.3757782 342.63562012 C247.58000244 354.55897505 240.76680204 366.47191897 233.8690033 378.33665466 C233.32163513 379.28121521 232.77426697 380.22577576 232.21031189 381.19895935 C217.97534075 405.60799158 217.97534075 405.60799158 204.4315033 410.27415466 C199.97876675 411.4095092 195.59710232 411.41963699 191.03227234 411.41459656 C190.18905497 411.41756768 189.3458376 411.4205388 188.47706819 411.42359996 C185.65295054 411.43226815 182.82887537 411.43379362 180.00474548 411.43528748 C177.97922678 411.43991697 175.95370895 411.44494181 173.92819214 411.45033264 C168.42599361 411.46344575 162.92380728 411.46989945 157.42159557 411.4743433 C153.98302484 411.4772757 150.54445743 411.48138082 147.10588837 411.48584747 C136.34440748 411.49951936 125.5829342 411.5091876 114.82144523 411.51304936 C102.40436608 411.51752989 89.98739703 411.53507891 77.57035136 411.56404996 C67.96848855 411.58567412 58.36665669 411.59575404 48.76476979 411.59709048 C43.03173797 411.59813795 37.29880968 411.60403357 31.56580353 411.6219101 C26.17151547 411.63840346 20.77740863 411.64054006 15.38310432 411.63177109 C13.40665514 411.6310014 11.43019616 411.63533435 9.45377159 411.64522934 C6.74852298 411.65797564 4.04391366 411.65205753 1.33866882 411.64164734 C0.17496863 411.65373195 0.17496863 411.65373195 -1.01224065 411.66606069 C-10.43209117 411.58170759 -18.31771809 408.1832077 -25.5684967 402.27415466 C-31.47426516 395.86253881 -35.52523347 388.33868203 -39.6309967 380.71165466 C-40.95200203 378.28990153 -42.27953758 375.87175338 -43.6075592 373.45384216 C-43.940233 372.84675919 -44.2729068 372.23967621 -44.61566162 371.61419678 C-47.81207132 365.79597175 -51.1412255 360.05903172 -54.5059967 354.33665466 C-59.53956807 345.76313004 -64.51738486 337.15979855 -69.4434967 328.52415466 C-69.77628632 327.9409848 -70.10907593 327.35781494 -70.45195007 326.75697327 C-73.16631571 321.99996693 -75.87786314 317.24135608 -78.58924866 312.48265076 C-80.95601105 308.32906487 -83.32401878 304.17619206 -85.6934967 300.02415466 C-86.02587341 299.44156891 -86.35825012 298.85898315 -86.70069885 298.25874329 C-91.31600079 290.17242102 -95.98445634 282.11875062 -100.6934967 274.08665466 C-106.10812932 264.85069777 -111.36998541 255.5367806 -116.5738678 246.1806488 C-120.45584597 239.21488204 -124.42696223 232.31146718 -128.54994202 225.4853363 C-132.3846966 219.08328824 -133.91409001 214.50324108 -133.8809967 207.02415466 C-133.89710999 206.3113031 -133.91322327 205.59845154 -133.92982483 204.86399841 C-133.93899977 194.67981024 -129.53665022 186.99386794 -124.3809967 178.46165466 C-123.11279114 176.32569448 -121.84591692 174.1889434 -120.58021545 172.05149841 C-119.59094055 170.3864325 -119.59094055 170.3864325 -118.5816803 168.68772888 C-115.22725985 162.99994005 -111.96087145 157.26222513 -108.6934967 151.52415466 C-108.02091142 150.34481502 -107.34822206 149.16553473 -106.6754303 147.98631287 C-105.31812925 145.60697604 -103.96137654 143.22732795 -102.6051178 140.84739685 C-99.24197619 134.94613778 -95.87471603 129.04723117 -92.5059967 123.14915466 C-92.17456665 122.56879456 -91.8431366 121.98843445 -91.50166321 121.39048767 C-86.0992058 111.93215994 -80.6625413 102.49387083 -75.21278381 93.06272888 C-70.64122584 85.146523 -66.0993271 77.21370096 -61.5684967 69.27415466 C-41.53228563 34.17467221 -41.53228563 34.17467221 -33.3809967 20.46165466 C-32.72744202 19.36208435 -32.07388733 18.26251404 -31.40052795 17.12962341 C-28.20146225 12.14344637 -25.24560228 8.73537593 -20.1934967 5.58665466 C-18.82064514 4.71460388 -18.82064514 4.71460388 -17.4200592 3.82493591 C-11.64303159 0.68318254 -6.50271854 -0.0199585 0 0 Z M-2.97743225 53.88450623 C-7.20502577 59.44805287 -10.64568072 65.38027433 -14.05781555 71.47029114 C-15.80834331 74.59463275 -17.5767199 77.70887675 -19.3419342 80.82493591 C-19.69859161 81.45579605 -20.05524902 82.08665619 -20.42271423 82.7366333 C-23.78666585 88.68010034 -27.23379831 94.57347628 -30.6934967 100.46165466 C-35.41463237 108.51378412 -40.02785531 116.61894036 -44.5684967 124.77415466 C-49.10916039 132.92940899 -53.72392783 141.03358117 -58.4434967 149.08665466 C-65.81446466 161.68120537 -65.81446466 161.68120537 -73.13008118 174.30793762 C-73.82765859 175.51573589 -74.52757342 176.72218781 -75.23005676 177.92713928 C-83.17826261 190.95673024 -83.17826261 190.95673024 -86.1309967 205.64915466 C-86.15291077 206.62626404 -86.17482483 207.60337341 -86.19740295 208.61009216 C-84.4103389 219.02168272 -78.51964551 228.28034583 -73.2559967 237.27415466 C-72.54958899 238.49360409 -71.84395869 239.71350414 -71.13905334 240.93382263 C-69.67901654 243.46011472 -68.21571078 245.98446934 -66.75013733 248.5075531 C-63.63743782 253.87307319 -60.57057339 259.2646675 -57.50028992 264.65452576 C-51.44280985 275.28323637 -45.33964636 285.88539808 -39.21717834 296.47679138 C-35.62829967 302.68959881 -32.05748428 308.91220723 -28.50743103 315.14724731 C-26.15506764 319.2785052 -23.79372879 323.40451782 -21.4278717 327.52806091 C-18.93333432 331.87609181 -16.46715588 336.23824885 -14.0216217 340.61399841 C-6.87900952 353.26030742 -1.13427514 363.33355744 13.11764526 368.40496826 C19.35985629 370.04222758 25.69679067 369.82973259 32.10142517 369.79173279 C33.65168919 369.79716419 35.20194804 369.80429253 36.75219727 369.81297302 C40.93203389 369.83108852 45.11147218 369.82418803 49.29131508 369.81145668 C53.68371714 369.80126752 58.07608708 369.81073868 62.4684906 369.81700134 C69.84212817 369.82426063 77.21560502 369.81473536 84.58921814 369.79563904 C93.09117308 369.77387357 101.5927442 369.78092617 110.09468985 369.80294466 C117.41904766 369.82114784 124.74329052 369.82363303 132.06766367 369.81318998 C136.43135263 369.80698199 140.79486171 369.80604465 145.15853882 369.81933594 C149.26277908 369.83096578 153.36652873 369.82273998 157.47071648 369.79975891 C158.96900051 369.79450962 160.46732648 369.7959201 161.96559334 369.80480957 C173.77673337 369.8683791 185.16412322 368.45144325 193.96763611 359.75706482 C199.34414269 353.89078274 203.09528727 347.33018867 206.9315033 340.39915466 C207.63030881 339.15376521 208.33019994 337.90898437 209.03111267 336.66477966 C210.4686002 334.11222025 211.90233835 331.55761024 213.33384705 329.00169373 C216.48065136 323.39567993 219.70813768 317.83637622 222.9315033 312.27415466 C230.12953303 299.81941356 237.26807739 287.33103387 244.39781189 274.83714294 C246.80022243 270.62760814 249.20471476 266.41926374 251.61001587 262.21138 C253.30334006 259.2489848 254.99582759 256.28612 256.68614197 253.32200623 C259.7589528 247.93647077 262.84216202 242.55794887 265.9627533 237.19993591 C266.50899353 236.25755066 267.05523376 235.31516541 267.61802673 234.34422302 C268.61575581 232.62437117 269.61850593 230.90741572 270.62779236 229.19432068 C274.80496972 221.97487152 279.00519726 214.42895778 278.9940033 205.89915466 C279.02687439 204.4334906 279.02687439 204.4334906 279.06040955 202.93821716 C277.26605585 192.48415647 271.33739905 183.18159054 266.0565033 174.14915466 C265.34683402 172.92298831 264.6378641 171.69641695 263.92955017 170.46946716 C262.47734127 167.95647175 261.02120957 165.44582016 259.56138611 162.9372406 C256.95054586 158.45008948 254.35799439 153.95244077 251.76524353 149.45481873 C250.53645607 147.32345898 249.30679208 145.19260436 248.07627869 143.0622406 C243.52773466 135.18658141 239.00431203 127.2967531 234.4940033 119.39915466 C233.99784012 118.53057831 233.99784012 118.53057831 233.49165344 117.64445496 C229.42090734 110.51783088 225.35697798 103.38735402 221.29710388 96.25453186 C218.31716909 91.02184681 215.31981033 85.79928491 212.32017517 80.5778656 C210.48220511 77.36284351 208.66661838 74.13598349 206.8533783 70.90696716 C205.7343416 68.94559873 204.61458981 66.98463805 203.4940033 65.02415466 C203.01100769 64.14968689 202.52801208 63.27521912 202.03038025 62.37425232 C195.72176493 51.45273638 187.56698651 45.64157421 175.4315033 42.27415466 C170.14958151 41.6152373 164.93607 41.59732865 159.62632751 41.64305115 C158.0856189 41.63789943 156.5449162 41.63060878 155.00422668 41.62136841 C150.85953559 41.60300831 146.71549589 41.61569304 142.57083273 41.63545871 C138.21181203 41.65196913 133.8528286 41.64301549 129.49378967 41.63793945 C122.17914039 41.63343319 114.86474806 41.64919919 107.55015564 41.67723083 C99.11744735 41.70930011 90.68520158 41.70925289 82.25246036 41.69201607 C74.10615154 41.67610455 65.96001081 41.68291264 57.81370926 41.69995308 C54.36180722 41.70678982 50.91004129 41.70582619 47.45814133 41.69840813 C43.38832499 41.69069719 39.31902967 41.70302644 35.24930191 41.73025703 C33.76392411 41.73709099 32.27849716 41.73729301 30.79312134 41.7300415 C17.89722837 41.6743798 5.91551727 43.72025479 -2.97743225 53.88450623 Z " fill="#FDD84B" transform="translate(543.5684967041016,430.72584533691406)"/>
<path d="M0 0 C1.97422188 -0.0129007 1.97422188 -0.0129007 3.98832703 -0.02606201 C5.44551047 -0.03049703 6.90269433 -0.03479541 8.35987854 -0.03897095 C9.89600814 -0.04687571 11.43213589 -0.05514489 12.96826172 -0.06375122 C18.01357763 -0.08993973 23.05890167 -0.10528101 28.10426331 -0.11953735 C29.84492052 -0.12489934 31.58557769 -0.13027685 33.32623482 -0.13566971 C40.57250341 -0.15729851 47.81876982 -0.17603109 55.06506252 -0.1872921 C65.42667364 -0.20350318 75.78790812 -0.23661161 86.14937729 -0.29369295 C93.44641595 -0.3325109 100.7433544 -0.35193907 108.04049355 -0.35721266 C112.39216187 -0.36085145 116.7434282 -0.37271377 121.09498405 -0.4053154 C125.1966786 -0.43560362 129.29773233 -0.44163493 133.39951515 -0.42993164 C134.89537329 -0.42971259 136.39126297 -0.43787612 137.8870163 -0.45558548 C150.71722745 -0.59907656 162.17912194 1.64178531 171.65455627 10.88632202 C175.10634654 14.89284889 177.63942643 19.27802066 180.17066956 23.90390015 C181.05166321 25.46286011 181.05166321 25.46286011 181.95045471 27.05331421 C183.20414012 29.27322415 184.45105708 31.49696824 185.69166565 33.72421265 C188.57937438 38.89192377 191.53385906 44.02093736 194.48072815 49.15505981 C196.17012488 52.10234942 197.85206993 55.05387959 199.53395081 58.00546265 C200.21314739 59.19719592 200.89234661 60.38892769 201.57154846 61.58065796 C202.07600494 62.46582092 202.07600494 62.46582092 202.59065247 63.36886597 C205.61459003 68.67377136 208.64221536 73.97657223 211.67066956 79.27890015 C212.00209961 79.85926025 212.33352966 80.43962036 212.67500305 81.03756714 C217.46424824 89.42231638 222.27841933 97.79241891 227.10816956 106.15390015 C228.33349412 108.27886316 229.55875409 110.40386342 230.78395081 112.52890015 C233.1345068 116.60507978 235.49197053 120.67711981 237.85606384 124.74545288 C239.31987857 127.26773316 240.77804296 129.79325175 242.23512268 132.31942749 C242.93015848 133.52166023 243.62750575 134.72256029 244.32740784 135.92196655 C255.18247728 154.53141164 255.18247728 154.53141164 255.17066956 163.52890015 C255.19258362 164.50600952 255.21449768 165.4831189 255.23707581 166.48983765 C253.45000372 176.90147501 247.55925533 186.16001164 242.29566956 195.15390015 C241.5885231 196.37481083 240.88216065 197.59617589 240.17652893 198.81796265 C238.7158251 201.34575789 237.2518325 203.87160268 235.78541565 206.39608765 C232.36138197 212.29727208 228.98789733 218.22726432 225.60816956 224.15390015 C224.27664755 226.48492044 222.94433002 228.81548577 221.61207581 231.14608765 C218.93074715 235.8378602 216.25137863 240.53074793 213.57301331 245.22421265 C205.22400873 259.85293671 196.86038377 274.47306499 188.40748596 289.04208374 C186.60285349 292.16309399 184.81401825 295.2928011 183.02613831 298.4234314 C181.88736851 300.39640701 180.74807014 302.36907764 179.60816956 304.34140015 C179.10454895 305.2319812 178.60092834 306.12256226 178.08204651 307.04013062 C173.76249727 314.45999572 169.05349824 320.66439184 160.92066956 324.02890015 C160.00930237 324.41819702 159.09793518 324.8074939 158.15895081 325.20858765 C153.68724905 326.86578799 149.95751837 327.28333165 145.16491699 327.30107117 C144.19750504 327.3065862 144.19750504 327.3065862 143.21054941 327.31221265 C141.05133329 327.32321772 138.89216535 327.32708795 136.73292542 327.3309021 C135.18369902 327.33716931 133.63447412 327.34381634 132.08525085 327.35081482 C126.99784894 327.3718326 121.91044681 327.38221727 116.82301331 327.3921814 C115.06869046 327.39623025 113.31436777 327.40034721 111.56004524 327.40453148 C103.31446591 327.42358067 95.0688955 327.43781047 86.82329839 327.44614345 C77.32156805 327.45590552 67.8200713 327.48219921 58.31842321 327.52264434 C50.96451404 327.55286706 43.61067157 327.56761828 36.25670153 327.57092446 C31.86939246 327.57326855 27.48233301 327.58214458 23.09509087 327.60738564 C18.96227634 327.63077847 14.82987378 327.63485495 10.69701004 327.62462425 C9.18742179 327.62413144 7.67781249 327.63037608 6.16828728 327.6441803 C-6.57311031 327.75409424 -17.03165151 325.92107963 -26.45433044 316.8062439 C-32.86177908 309.40145057 -37.02736021 300.04528481 -41.60227966 291.46005249 C-44.36902364 286.34855904 -47.31329062 281.3465332 -50.26683044 276.34140015 C-55.32125995 267.72636326 -60.31751388 259.0796675 -65.26683044 250.40390015 C-65.60019409 249.81958221 -65.93355774 249.23526428 -66.27702332 248.63323975 C-67.97186535 245.66198034 -69.66591029 242.69026743 -71.35960388 239.71835327 C-74.03558375 235.02359545 -76.71716745 230.33204429 -79.39915466 225.64071655 C-80.72236623 223.32600672 -82.04402074 221.01042867 -83.36497498 218.69442749 C-86.46096761 213.26823276 -89.56468006 207.84712073 -92.69932556 202.44314575 C-94.16496793 199.91523778 -95.62573835 197.38453029 -97.08616638 194.85360718 C-97.77775903 193.65819472 -98.47168574 192.46412887 -99.16819763 191.27157593 C-109.96614252 172.77969872 -109.96614252 172.77969872 -109.95433044 163.77890015 C-109.97624451 162.80179077 -109.99815857 161.8246814 -110.02073669 160.81796265 C-108.29342716 150.7545071 -102.72039689 141.82187495 -97.57933044 133.15390015 C-96.58112634 131.44744823 -95.58294614 129.74098195 -94.58596802 128.03381348 C-93.89670452 126.85430471 -93.20652202 125.67533252 -92.51544189 124.49688721 C-89.11498604 118.69724042 -85.77674622 112.86304983 -82.44786072 107.02200317 C-81.44856445 105.26878397 -80.4481983 103.51617958 -79.44749451 101.76376343 C-77.42823183 98.22754619 -75.40994107 94.69077495 -73.39183044 91.15390015 C-55.04235753 58.99521293 -55.04235753 58.99521293 -46.06370544 43.52108765 C-43.5558658 39.19312795 -41.09368957 34.84285237 -38.65745544 30.47421265 C-37.74020691 28.85047729 -37.74020691 28.85047729 -36.8044281 27.19393921 C-35.65520486 25.15917684 -34.51837225 23.11733927 -33.39720154 21.06698608 C-27.56233462 10.81523771 -19.98138289 4.11474977 -8.6636343 0.62030602 C-5.74188482 0.02046501 -2.98385611 0.01452674 0 0 Z M-3.39183044 61.15390015 C-5.91204946 65.01930524 -8.1054233 69.01669236 -10.26683044 73.09140015 C-11.49458221 75.3447758 -12.72375135 77.59737977 -13.95433044 79.84921265 C-14.54472107 80.93750366 -15.13511169 82.02579468 -15.74339294 83.14706421 C-17.83885426 86.96929489 -20.03059832 90.72535127 -22.26683044 94.46640015 C-27.42432138 103.14051046 -32.41508328 111.90931088 -37.40745544 120.67904663 C-40.50887639 126.12448357 -43.61934569 131.56324065 -46.79417419 136.96640015 C-47.30150085 137.83152222 -47.80882751 138.69664429 -48.33152771 139.58798218 C-49.25560595 141.15949675 -50.18413649 142.72840611 -51.1181488 144.29403687 C-54.84702131 150.64277965 -56.6886144 155.92644612 -56.76683044 163.40390015 C-56.79518982 164.6259314 -56.82354919 165.84796265 -56.85276794 167.10702515 C-56.26675864 176.36643452 -50.60040569 184.60819765 -45.95433044 192.34140015 C-44.69382886 194.46948546 -43.43474791 196.59841279 -42.17698669 198.7281189 C-41.54292908 199.79981323 -40.90887146 200.87150757 -40.25559998 201.97567749 C-37.40647378 206.83419527 -34.64719651 211.74179147 -31.89183044 216.65390015 C-26.78134929 225.74494619 -21.56621122 234.77057125 -16.29051208 243.76669312 C-13.79947968 248.01620493 -11.31336641 252.26564226 -8.90745544 256.5640564 C-8.54820984 257.20463989 -8.18896423 257.84522339 -7.8188324 258.50521851 C-6.91973563 260.11684891 -6.02839163 261.73279831 -5.13792419 263.34921265 C-2.16861197 268.11871192 1.12193717 272.21022429 5.85816956 275.34140015 C6.54395081 275.80932983 7.22973206 276.27725952 7.93629456 276.7593689 C15.2517723 280.57753491 22.00541217 281.59706464 30.18580627 281.55795288 C31.20332977 281.56481613 32.22085327 281.57167938 33.26921082 281.57875061 C36.60890441 281.59694457 39.94812487 281.59319129 43.28785706 281.5874939 C45.62518973 281.59205948 47.96252106 281.59736617 50.29985046 281.6033783 C55.19027675 281.61229509 60.0805396 281.60990276 64.97096252 281.59994507 C71.21718257 281.58846193 77.46283672 281.60866483 83.70898247 281.63786221 C88.53391565 281.65626833 93.35871435 281.65592283 98.18367386 281.65022469 C100.48561013 281.65007199 102.78755582 281.65607338 105.08945847 281.66851616 C108.31724085 281.68350618 111.54399215 281.67268946 114.77174377 281.65560913 C115.70923462 281.6652771 116.64672546 281.67494507 117.61262512 281.68490601 C127.38182249 281.57744516 136.04686396 278.53143396 143.57423401 272.23886108 C150.21442549 265.43208696 154.5264632 255.95218478 159.17320251 247.730896 C160.91356557 244.65223448 162.66340613 241.57896633 164.41285706 238.50546265 C164.76621628 237.88429062 165.1195755 237.26311859 165.48364258 236.62312317 C168.87515092 230.66899879 172.33021075 224.75274844 175.79566956 218.84140015 C180.47245578 210.84966838 185.10243576 202.83322858 189.67066956 194.77890015 C190.19491516 193.85810669 190.71916077 192.93731323 191.2592926 191.98861694 C199.17484773 178.30075551 199.17484773 178.30075551 201.92066956 162.96640015 C201.95805237 161.92097046 201.99543518 160.87554077 202.03395081 159.7984314 C200.97355272 150.72181294 195.98319073 142.97707051 191.35816956 135.27890015 C190.10041307 133.15463744 188.84395486 131.02960562 187.58863831 128.90390015 C186.60903137 127.2487439 186.60903137 127.2487439 185.6096344 125.56015015 C182.58435152 120.41148623 179.62519844 115.22545308 176.67097473 110.03582764 C175.00011704 107.10114742 173.32538507 104.16867901 171.65113831 101.2359314 C171.31912415 100.65422684 170.98710999 100.07252228 170.64503479 99.47319031 C166.93132272 92.96694259 163.21326742 86.46327008 159.48316956 79.96640015 C158.87996887 78.91017456 158.27676819 77.85394897 157.6552887 76.76571655 C147.39442094 58.23356909 147.39442094 58.23356909 129.77513123 47.62542343 C120.98748825 45.71326304 111.51446081 46.42260128 102.57691956 46.4546814 C100.13416701 46.44876413 97.69141736 46.44151392 95.24867249 46.43299866 C90.14488033 46.42115647 85.04152534 46.42776398 79.9377594 46.44711304 C73.42129844 46.47000351 66.90614117 46.44319602 60.38980865 46.40205097 C55.35032918 46.37638841 50.3111582 46.37907591 45.27163696 46.38994408 C42.8700441 46.39142337 40.46842673 46.38382704 38.06689453 46.3666935 C21.22367783 46.26600673 7.70250705 46.80881876 -3.39183044 61.15390015 Z " fill="#012D4B" transform="translate(567.3918304443359,472.8460998535156)"/>
<path d="M0 0 C1.86714157 -0.00929787 1.86714157 -0.00929787 3.77200317 -0.01878357 C6.3924278 -0.02585481 9.01289761 -0.02275523 11.63330078 -0.01000977 C15.61445928 0.00384239 19.5932586 -0.03024641 23.57421875 -0.06835938 C26.13281307 -0.06931087 28.69141029 -0.06745014 31.25 -0.0625 C33.01305984 -0.08238731 33.01305984 -0.08238731 34.81173706 -0.10267639 C45.12758873 0.01194009 55.18560879 2.82891556 62.79296875 10.15625 C66.95596358 15.26274664 70.0214109 21.07912658 73.21240234 26.81884766 C74.97146414 29.94625389 76.77741259 33.04384994 78.58984375 36.140625 C79.60282399 37.87521796 80.61531088 39.61009799 81.62765503 41.34506226 C82.61047069 43.02814565 83.59537249 44.71001032 84.58032227 46.3918457 C91.44641828 58.24391706 96.20330213 67.65963851 93.7578125 81.56640625 C92.07369944 86.44226652 89.78665701 90.70009459 87.17529297 95.13427734 C85.51841155 97.9771731 83.93655016 100.85646201 82.35546875 103.7421875 C62.32306993 140.13161055 62.32306993 140.13161055 48.7578125 144.56640625 C45.16673901 145.41448308 41.81877874 145.7059306 38.13232422 145.7434082 C37.02702362 145.75624344 35.92172302 145.76907867 34.78292847 145.78230286 C33.00319138 145.79338326 33.00319138 145.79338326 31.1875 145.8046875 C29.95548859 145.81275925 28.72347717 145.82083099 27.45413208 145.82914734 C24.84671426 145.84296801 22.2392785 145.85369916 19.63183594 145.86157227 C16.97650825 145.87308193 14.32120351 145.89351735 11.66601562 145.9230957 C7.81885126 145.96594304 3.97237391 145.98196686 0.125 145.9921875 C-1.04934601 146.00969559 -2.22369202 146.02720367 -3.43362427 146.04524231 C-14.88244302 146.01544878 -23.59967041 143.29400546 -31.90234375 135.26513672 C-36.15484343 130.36038594 -39.18212004 124.82135043 -42.2421875 119.12890625 C-42.92943418 117.88373439 -43.61841828 116.63951999 -44.30908203 115.39624023 C-45.67216392 112.93618594 -47.02491453 110.47093715 -48.36816406 108 C-50.02948241 104.95612542 -51.71576746 101.92907675 -53.421875 98.91015625 C-59.96129948 87.31474567 -64.32581795 78.15478131 -62.2421875 64.56640625 C-60.62919683 59.71716042 -58.3480108 55.53309587 -55.75439453 51.14501953 C-54.2746926 48.6218339 -52.84025111 46.07602453 -51.41635132 43.52101135 C-27.09848296 -0.11395834 -27.09848296 -0.11395834 0 0 Z " fill="#012C4B" transform="translate(624.2421875,563.43359375)"/>
<path d="M0 0 C7.53518566 4.50844722 13.12353249 11.48790524 15.4375 20 C16.52311736 28.41353455 15.40031851 36.55577224 10.65625 43.671875 C4.75145677 50.90310729 -1.95348455 54.91318413 -11.19921875 56.43359375 C-19.71388727 56.87469903 -26.83024631 53.71447855 -33.375 48.4375 C-39.78223485 42.28019275 -42.76267963 35.41901804 -43.25 26.5625 C-42.85585231 17.60362952 -39.18485681 10.03701598 -32.625 3.9375 C-23.8130744 -3.41512582 -10.41162199 -4.72674863 0 0 Z " fill="#FCD74B" transform="translate(653.5625,610)"/>
</svg>
